<mxfile host="app.diagrams.net" modified="2022-06-29T08:29:35.915Z" agent="5.0 (Windows)" etag="9MchT4r9iVkk5xxKMXeA" version="20.0.3" type="github">
  <diagram id="C5RBs43oDa-KdzZeNtuy" name="Page-1">
    <mxGraphModel dx="1206" dy="752" grid="1" gridSize="10" guides="1" tooltips="1" connect="1" arrows="1" fold="1" page="1" pageScale="1" pageWidth="827" pageHeight="1169" math="0" shadow="0">
      <root>
        <mxCell id="WIyWlLk6GJQsqaUBKTNV-0" />
        <mxCell id="WIyWlLk6GJQsqaUBKTNV-1" parent="WIyWlLk6GJQsqaUBKTNV-0" />
        <mxCell id="WIyWlLk6GJQsqaUBKTNV-3" value="开始" style="rounded=1;whiteSpace=wrap;html=1;fontSize=12;glass=0;strokeWidth=1;shadow=0;" parent="WIyWlLk6GJQsqaUBKTNV-1" vertex="1">
          <mxGeometry x="180" y="100" width="80" height="40" as="geometry" />
        </mxCell>
        <mxCell id="cB7DuyE-lDBQA-uF7fzw-0" value="图像预处理" style="rounded=0;whiteSpace=wrap;html=1;" vertex="1" parent="WIyWlLk6GJQsqaUBKTNV-1">
          <mxGeometry x="160" y="180" width="120" height="40" as="geometry" />
        </mxCell>
        <mxCell id="cB7DuyE-lDBQA-uF7fzw-3" value="" style="endArrow=classic;html=1;rounded=0;exitX=0.5;exitY=1;exitDx=0;exitDy=0;" edge="1" parent="WIyWlLk6GJQsqaUBKTNV-1" source="WIyWlLk6GJQsqaUBKTNV-3" target="cB7DuyE-lDBQA-uF7fzw-0">
          <mxGeometry width="50" height="50" relative="1" as="geometry">
            <mxPoint x="390" y="430" as="sourcePoint" />
            <mxPoint x="440" y="380" as="targetPoint" />
          </mxGeometry>
        </mxCell>
        <mxCell id="cB7DuyE-lDBQA-uF7fzw-4" value="" style="endArrow=classic;html=1;rounded=0;exitX=0.5;exitY=1;exitDx=0;exitDy=0;entryX=0.5;entryY=0;entryDx=0;entryDy=0;" edge="1" parent="WIyWlLk6GJQsqaUBKTNV-1" source="cB7DuyE-lDBQA-uF7fzw-0" target="cB7DuyE-lDBQA-uF7fzw-5">
          <mxGeometry width="50" height="50" relative="1" as="geometry">
            <mxPoint x="200" y="300" as="sourcePoint" />
            <mxPoint x="250" y="250" as="targetPoint" />
          </mxGeometry>
        </mxCell>
        <mxCell id="cB7DuyE-lDBQA-uF7fzw-11" value="" style="edgeStyle=orthogonalEdgeStyle;rounded=0;orthogonalLoop=1;jettySize=auto;html=1;" edge="1" parent="WIyWlLk6GJQsqaUBKTNV-1" source="cB7DuyE-lDBQA-uF7fzw-5" target="cB7DuyE-lDBQA-uF7fzw-10">
          <mxGeometry relative="1" as="geometry" />
        </mxCell>
        <mxCell id="cB7DuyE-lDBQA-uF7fzw-5" value="网络前向推理" style="rounded=0;whiteSpace=wrap;html=1;" vertex="1" parent="WIyWlLk6GJQsqaUBKTNV-1">
          <mxGeometry x="160" y="260" width="120" height="40" as="geometry" />
        </mxCell>
        <mxCell id="cB7DuyE-lDBQA-uF7fzw-13" value="" style="edgeStyle=orthogonalEdgeStyle;rounded=0;orthogonalLoop=1;jettySize=auto;html=1;" edge="1" parent="WIyWlLk6GJQsqaUBKTNV-1" source="cB7DuyE-lDBQA-uF7fzw-10" target="cB7DuyE-lDBQA-uF7fzw-12">
          <mxGeometry relative="1" as="geometry" />
        </mxCell>
        <mxCell id="cB7DuyE-lDBQA-uF7fzw-10" value="后处理（根据模型输出可视化最终结果）" style="rounded=0;whiteSpace=wrap;html=1;" vertex="1" parent="WIyWlLk6GJQsqaUBKTNV-1">
          <mxGeometry x="160" y="340" width="120" height="60" as="geometry" />
        </mxCell>
        <mxCell id="cB7DuyE-lDBQA-uF7fzw-12" value="结束" style="rounded=1;whiteSpace=wrap;html=1;fontSize=12;glass=0;strokeWidth=1;shadow=0;" vertex="1" parent="WIyWlLk6GJQsqaUBKTNV-1">
          <mxGeometry x="180" y="430" width="80" height="40" as="geometry" />
        </mxCell>
        <mxCell id="cB7DuyE-lDBQA-uF7fzw-14" value="开始" style="rounded=1;whiteSpace=wrap;html=1;fontSize=12;glass=0;strokeWidth=1;shadow=0;" vertex="1" parent="WIyWlLk6GJQsqaUBKTNV-1">
          <mxGeometry x="430" y="80" width="80" height="35" as="geometry" />
        </mxCell>
        <mxCell id="cB7DuyE-lDBQA-uF7fzw-15" value="选取第一张作为当前最佳" style="rounded=0;whiteSpace=wrap;html=1;" vertex="1" parent="WIyWlLk6GJQsqaUBKTNV-1">
          <mxGeometry x="390" y="155" width="160" height="40" as="geometry" />
        </mxCell>
        <mxCell id="cB7DuyE-lDBQA-uF7fzw-16" value="" style="endArrow=classic;html=1;rounded=0;exitX=0.5;exitY=1;exitDx=0;exitDy=0;" edge="1" parent="WIyWlLk6GJQsqaUBKTNV-1" source="cB7DuyE-lDBQA-uF7fzw-14" target="cB7DuyE-lDBQA-uF7fzw-15">
          <mxGeometry width="50" height="50" relative="1" as="geometry">
            <mxPoint x="640" y="405" as="sourcePoint" />
            <mxPoint x="690" y="355" as="targetPoint" />
          </mxGeometry>
        </mxCell>
        <mxCell id="cB7DuyE-lDBQA-uF7fzw-17" value="" style="endArrow=classic;html=1;rounded=0;exitX=0.5;exitY=1;exitDx=0;exitDy=0;entryX=0.5;entryY=0;entryDx=0;entryDy=0;" edge="1" parent="WIyWlLk6GJQsqaUBKTNV-1" source="cB7DuyE-lDBQA-uF7fzw-15" target="cB7DuyE-lDBQA-uF7fzw-19">
          <mxGeometry width="50" height="50" relative="1" as="geometry">
            <mxPoint x="450" y="275" as="sourcePoint" />
            <mxPoint x="500" y="225" as="targetPoint" />
          </mxGeometry>
        </mxCell>
        <mxCell id="cB7DuyE-lDBQA-uF7fzw-24" value="" style="edgeStyle=orthogonalEdgeStyle;rounded=0;orthogonalLoop=1;jettySize=auto;html=1;" edge="1" parent="WIyWlLk6GJQsqaUBKTNV-1" source="cB7DuyE-lDBQA-uF7fzw-19" target="cB7DuyE-lDBQA-uF7fzw-23">
          <mxGeometry relative="1" as="geometry" />
        </mxCell>
        <mxCell id="cB7DuyE-lDBQA-uF7fzw-19" value="选取下一张图像，将当前最佳与选取图像对比，更新当前最佳" style="rounded=0;whiteSpace=wrap;html=1;" vertex="1" parent="WIyWlLk6GJQsqaUBKTNV-1">
          <mxGeometry x="385" y="230" width="170" height="50" as="geometry" />
        </mxCell>
        <mxCell id="cB7DuyE-lDBQA-uF7fzw-22" value="结束" style="rounded=1;whiteSpace=wrap;html=1;fontSize=12;glass=0;strokeWidth=1;shadow=0;" vertex="1" parent="WIyWlLk6GJQsqaUBKTNV-1">
          <mxGeometry x="430" y="470" width="80" height="30" as="geometry" />
        </mxCell>
        <mxCell id="cB7DuyE-lDBQA-uF7fzw-32" value="" style="edgeStyle=orthogonalEdgeStyle;rounded=0;orthogonalLoop=1;jettySize=auto;html=1;" edge="1" parent="WIyWlLk6GJQsqaUBKTNV-1" source="cB7DuyE-lDBQA-uF7fzw-23" target="cB7DuyE-lDBQA-uF7fzw-31">
          <mxGeometry relative="1" as="geometry" />
        </mxCell>
        <mxCell id="cB7DuyE-lDBQA-uF7fzw-37" value="" style="edgeStyle=orthogonalEdgeStyle;rounded=0;orthogonalLoop=1;jettySize=auto;html=1;entryX=0;entryY=0.5;entryDx=0;entryDy=0;" edge="1" parent="WIyWlLk6GJQsqaUBKTNV-1" source="cB7DuyE-lDBQA-uF7fzw-23" target="cB7DuyE-lDBQA-uF7fzw-15">
          <mxGeometry relative="1" as="geometry">
            <mxPoint x="342.5" y="190" as="targetPoint" />
            <Array as="points">
              <mxPoint x="370" y="340" />
              <mxPoint x="370" y="175" />
            </Array>
          </mxGeometry>
        </mxCell>
        <mxCell id="cB7DuyE-lDBQA-uF7fzw-23" value="是否最后一张" style="rhombus;whiteSpace=wrap;html=1;rounded=0;" vertex="1" parent="WIyWlLk6GJQsqaUBKTNV-1">
          <mxGeometry x="417.5" y="310" width="105" height="60" as="geometry" />
        </mxCell>
        <mxCell id="cB7DuyE-lDBQA-uF7fzw-27" value="是" style="text;html=1;align=center;verticalAlign=middle;resizable=0;points=[];autosize=1;strokeColor=none;fillColor=none;" vertex="1" parent="WIyWlLk6GJQsqaUBKTNV-1">
          <mxGeometry x="477.5" y="370" width="40" height="30" as="geometry" />
        </mxCell>
        <mxCell id="cB7DuyE-lDBQA-uF7fzw-34" value="" style="edgeStyle=orthogonalEdgeStyle;rounded=0;orthogonalLoop=1;jettySize=auto;html=1;" edge="1" parent="WIyWlLk6GJQsqaUBKTNV-1" source="cB7DuyE-lDBQA-uF7fzw-31" target="cB7DuyE-lDBQA-uF7fzw-22">
          <mxGeometry relative="1" as="geometry" />
        </mxCell>
        <mxCell id="cB7DuyE-lDBQA-uF7fzw-35" value="" style="edgeStyle=orthogonalEdgeStyle;rounded=0;orthogonalLoop=1;jettySize=auto;html=1;" edge="1" parent="WIyWlLk6GJQsqaUBKTNV-1" source="cB7DuyE-lDBQA-uF7fzw-31" target="cB7DuyE-lDBQA-uF7fzw-22">
          <mxGeometry relative="1" as="geometry" />
        </mxCell>
        <mxCell id="cB7DuyE-lDBQA-uF7fzw-31" value="输出最佳图像" style="rounded=0;whiteSpace=wrap;html=1;" vertex="1" parent="WIyWlLk6GJQsqaUBKTNV-1">
          <mxGeometry x="410" y="400" width="120" height="40" as="geometry" />
        </mxCell>
        <mxCell id="cB7DuyE-lDBQA-uF7fzw-41" value="否" style="text;html=1;align=center;verticalAlign=middle;resizable=0;points=[];autosize=1;strokeColor=none;fillColor=none;" vertex="1" parent="WIyWlLk6GJQsqaUBKTNV-1">
          <mxGeometry x="370" y="335" width="40" height="30" as="geometry" />
        </mxCell>
      </root>
    </mxGraphModel>
  </diagram>
</mxfile>
